<?xml version="1.0" standalone="no"?>
<!DOCTYPE svg PUBLIC "-//W3C//DTD SVG 20010904//EN"
 "http://www.w3.org/TR/2001/REC-SVG-20010904/DTD/svg10.dtd">
<svg version="1.0" xmlns="http://www.w3.org/2000/svg"
 width="235.000000pt" height="250.000000pt" viewBox="0 0 235.000000 250.000000"
 preserveAspectRatio="xMidYMid meet">

<g transform="translate(0.000000,250.000000) scale(0.100000,-0.100000)"
fill="#000000" stroke="none">
<path d="M270 2491 c-57 -7 -113 -31 -142 -61 -10 -10 -42 -24 -73 -31 l-55
-12 0 -48 c0 -28 5 -50 13 -53 9 -5 9 -7 0 -12 -10 -4 -13 -231 -13 -1084 l0
-1079 89 6 c63 4 90 2 96 -6 4 -7 5 -14 2 -17 -2 -2 -45 -5 -96 -6 l-91 -1 0
-39 0 -38 48 0 c26 0 554 -3 1174 -6 l1128 -5 0 1251 0 1250 -1012 -1 c-557
-1 -1038 -5 -1068 -8z m425 -120 c87 -54 125 -120 125 -218 -1 -70 -14 -103
-42 -103 -11 0 -14 7 -10 25 2 14 8 25 13 25 5 0 8 15 8 33 -2 30 -2 30 -6 5
-2 -16 -9 -28 -14 -28 -5 0 -9 -9 -9 -20 0 -26 -40 -28 -40 -2 -1 13 -4 11
-15 -8 -18 -32 -19 -55 -2 -69 10 -8 17 -7 25 1 9 9 12 8 12 -3 0 -18 -68 -59
-97 -59 -16 0 -19 5 -16 24 4 18 -1 27 -18 37 -66 35 -107 91 -137 189 -13 42
-2 101 25 133 10 12 19 24 20 25 1 2 19 10 40 17 53 20 103 18 138 -4z m217
-207 c6 -5 -46 -64 -57 -64 -10 0 -5 26 11 48 15 21 34 28 46 16z m-312 -194
c0 -11 -6 -20 -14 -20 -18 0 -29 16 -21 30 11 18 35 11 35 -10z m841 -631 c17
-28 -2 -39 -71 -39 -74 0 -95 -13 -60 -37 11 -8 25 -26 30 -39 5 -13 16 -24
24 -24 7 0 26 -17 42 -37 15 -21 41 -51 57 -68 50 -52 136 -189 188 -301 28
-60 63 -136 79 -169 16 -33 38 -87 51 -120 12 -33 25 -64 30 -70 5 -5 9 -18 9
-28 0 -10 6 -33 14 -50 21 -47 56 -163 71 -236 25 -118 5 -111 -144 47 -102
108 -164 181 -227 271 -102 143 -236 373 -289 496 -9 22 -23 54 -30 71 -7 17
-16 52 -20 78 -4 25 -11 49 -16 52 -5 3 -9 19 -9 35 0 26 -3 30 -22 27 -16 -2
-30 -18 -46 -50 -27 -57 -47 -64 -39 -13 11 65 68 151 112 165 18 6 39 18 45
26 7 7 27 14 44 14 18 0 36 4 42 9 22 22 119 15 135 -10z"/>
<path d="M550 2291 c0 -28 57 -35 71 -8 7 12 18 17 30 14 10 -3 19 -1 19 4 0
5 -27 9 -60 9 -52 0 -60 -2 -60 -19z"/>
<path d="M531 2254 c0 -11 3 -14 6 -6 3 7 2 16 -1 19 -3 4 -6 -2 -5 -13z"/>
<path d="M526 2162 c-3 -6 0 -16 7 -24 7 -7 17 -22 21 -33 5 -11 10 -15 13 -9
6 16 -33 78 -41 66z"/>
<path d="M576 2081 c-4 -5 -2 -12 3 -15 5 -4 12 -2 15 3 4 5 2 12 -3 15 -5 4
-12 2 -15 -3z"/>
<path d="M655 2030 c-3 -5 1 -10 10 -10 9 0 13 5 10 10 -3 6 -8 10 -10 10 -2
0 -7 -4 -10 -10z"/>
<path d="M1209 1272 c-25 -15 -54 -50 -47 -57 5 -5 108 59 108 67 0 13 -33 7
-61 -10z"/>
<path d="M1274 1146 c-3 -8 -15 -11 -31 -8 -19 4 -24 1 -21 -9 3 -8 14 -13 26
-11 11 2 23 -2 27 -9 9 -14 25 7 25 34 0 20 -18 23 -26 3z"/>
</g>
</svg>
